<svg width="1733" height="1917" viewBox="0 0 1733 1917" fill="none" xmlns="http://www.w3.org/2000/svg">
<path d="M729.958 36.5751C814.425 -12.1917 918.492 -12.1917 1002.96 36.575L1596.42 379.208C1680.88 427.975 1732.92 518.1 1732.92 615.633V1300.9C1732.92 1398.43 1680.88 1488.56 1596.42 1537.33L1002.96 1879.96C918.492 1928.73 814.425 1928.73 729.958 1879.96L136.5 1537.33C52.0335 1488.56 0 1398.43 0 1300.9V615.633C0 518.1 52.0335 427.975 136.5 379.208L729.958 36.5751Z" fill="url(#paint0_linear_28_27)"/>
<path fill-rule="evenodd" clip-rule="evenodd" d="M1292.85 741.441C1491.83 798.448 1474.22 1102.31 1329.09 1209.99C1526.36 1128.57 1564.89 930.144 1489.96 794.404C1404.49 639.569 1167.54 566.303 906.804 841.325C1023.76 771.966 1119.2 739.582 1195.29 733.311L1195.3 733.314C1232.3 730.264 1264.74 733.391 1292.85 741.444C1292.85 741.443 1292.85 741.442 1292.85 741.441ZM909.274 459.941L1196.75 634.765C1162.34 640.705 1126.63 652 1090.01 669.285L865.131 532.527C860.612 529.778 854.937 529.778 850.418 532.527L514.161 737.018C509.937 739.587 507.359 744.172 507.359 749.116V1147.73C501.424 1147.66 495.662 1147.41 490.07 1146.97C464.239 1144.94 441.781 1139.08 422.405 1130.17V749.116C422.405 715.052 439.893 683.417 468.641 665.286L470.019 664.433L806.275 459.941C837.912 440.701 877.637 440.701 909.274 459.941ZM1243.1 759.763C1261.45 761.201 1278.1 764.573 1293.14 769.599V1167.19L1293.13 1168.81C1292.58 1202.8 1274.63 1234.18 1245.53 1251.88L909.274 1456.37L908.531 1456.82C877.016 1475.61 837.665 1475.46 806.275 1456.37H806.274L509.029 1275.6C545.812 1272.2 584.272 1262.62 623.896 1246.03L850.418 1383.78C854.937 1386.53 860.612 1386.53 865.131 1383.78L1201.39 1179.29C1205.61 1176.72 1208.19 1172.14 1208.19 1167.19V759.334C1220.5 758.733 1232.13 758.903 1243.1 759.763ZM826.368 1065.4C745.741 1150.44 667.388 1202.18 595.086 1228.51L595.091 1228.51C549.709 1245.03 506.711 1251.54 467.031 1249.99L467.023 1249.98C365.482 1246 285.662 1189.22 243.211 1112.32C168.281 976.578 206.814 778.148 404.082 696.735C196.29 850.903 249.914 1407.25 826.368 1065.4ZM623.168 723.548C683.495 736.954 808.169 809.346 904.692 964.854C1001.21 1120.36 1076.73 1177.11 1105.78 1186.05C1043.22 1172.65 911.395 1125.73 830.959 984.963C757.948 857.193 676.792 770.469 623.168 723.548Z" fill="white"/>
<defs>
<linearGradient id="paint0_linear_28_27" x1="866.458" y1="0" x2="866.458" y2="1916.53" gradientUnits="userSpaceOnUse">
<stop stop-color="#06B54E"/>
<stop offset="1" stop-color="#05836A"/>
</linearGradient>
</defs>
</svg>
